<?xml version="1.0" standalone="no"?>
<!DOCTYPE svg PUBLIC "-//W3C//DTD SVG 20010904//EN"
 "http://www.w3.org/TR/2001/REC-SVG-20010904/DTD/svg10.dtd">
<svg version="1.0" xmlns="http://www.w3.org/2000/svg"
 width="118.000000pt" height="118.000000pt" viewBox="0 0 118.000000 118.000000"
 preserveAspectRatio="xMidYMid meet">
<metadata>
Created by potrace 1.14, written by Peter Selinger 2001-2017
</metadata>
<g transform="translate(0.000000,118.000000) scale(0.100000,-0.100000)"
fill="#000000" stroke="none">
<path d="M252 1037 c-61 -33 -128 -101 -159 -165 -22 -44 -27 -71 -29 -136 -2
-75 -4 -82 -28 -96 -31 -18 -33 -35 -6 -50 27 -14 25 -24 -5 -38 l-26 -12 31
-33 30 -32 -29 -9 c-27 -8 -28 -11 -19 -32 6 -13 19 -24 29 -24 10 0 21 -4 24
-10 3 -5 12 -10 20 -10 66 0 341 -169 383 -234 25 -41 38 -45 47 -16 10 33 44
63 145 130 100 66 161 96 248 125 29 9 59 24 68 33 15 14 15 17 -2 29 -10 7
-24 13 -32 13 -8 0 -2 14 17 37 31 38 31 38 9 46 -33 12 -34 15 -3 41 l28 24
-32 16 c-29 16 -31 20 -32 76 -1 33 -2 63 -3 68 -1 4 -6 23 -10 42 -21 87 -90
171 -177 216 -27 13 -49 23 -50 22 0 -2 -2 -70 -3 -153 -2 -140 -9 -191 -25
-182 -131 71 -196 71 -333 -1 -15 -8 -25 70 -24 201 1 75 -1 137 -4 137 -3 -1
-24 -11 -48 -23z"/>
</g>
</svg>
